<svg xmlns="http://www.w3.org/2000/svg" width="1030" height="590" viewBox="0 0 1030 590">
  <g id="Grupo_128086" data-name="Grupo 128086" transform="translate(3726 4585)">
    <path id="Trazado_172581" data-name="Trazado 172581" d="M32.477,13.99V19h-2.93V4.781h5.547a6.417,6.417,0,0,1,2.817.586,4.318,4.318,0,0,1,1.87,1.665,4.643,4.643,0,0,1,.654,2.456A4.083,4.083,0,0,1,39,12.784a5.959,5.959,0,0,1-3.96,1.206Zm0-2.373h2.617a2.573,2.573,0,0,0,1.772-.547,1.989,1.989,0,0,0,.61-1.562,2.345,2.345,0,0,0-.615-1.689,2.3,2.3,0,0,0-1.7-.664H32.477ZM45.24,19H42.408V8.434H45.24Zm-3-13.3a1.39,1.39,0,0,1,.425-1.045,1.831,1.831,0,0,1,2.31,0,1.382,1.382,0,0,1,.43,1.045,1.386,1.386,0,0,1-.435,1.055,1.81,1.81,0,0,1-2.295,0A1.386,1.386,0,0,1,42.242,5.7Zm8.3,13.3H47.711V4h2.832Zm8.447,0a3.134,3.134,0,0,1-.283-.947A3.415,3.415,0,0,1,56.041,19.2a3.752,3.752,0,0,1-2.573-.9,2.89,2.89,0,0,1-1.021-2.266,2.986,2.986,0,0,1,1.245-2.578,6.144,6.144,0,0,1,3.6-.908h1.3v-.605a1.741,1.741,0,0,0-.376-1.172,1.479,1.479,0,0,0-1.187-.439,1.682,1.682,0,0,0-1.118.342,1.161,1.161,0,0,0-.405.938H52.682a2.835,2.835,0,0,1,.566-1.7,3.744,3.744,0,0,1,1.6-1.226,5.837,5.837,0,0,1,2.324-.444,4.611,4.611,0,0,1,3.1.981,3.433,3.433,0,0,1,1.147,2.759v4.58a5.052,5.052,0,0,0,.42,2.275V19Zm-2.334-1.963a2.431,2.431,0,0,0,1.152-.278,1.828,1.828,0,0,0,.781-.747V14.2H57.535q-2.119,0-2.256,1.465l-.01.166a1.13,1.13,0,0,0,.371.869A1.441,1.441,0,0,0,56.656,17.037Zm11.475-3.4A6.368,6.368,0,0,1,69.239,9.7a3.6,3.6,0,0,1,3.032-1.465A3.236,3.236,0,0,1,74.82,9.391V4h2.832V19H75.1l-.137-1.123A3.321,3.321,0,0,1,72.252,19.2a3.587,3.587,0,0,1-2.993-1.47A6.573,6.573,0,0,1,68.131,13.639Zm2.822.2a4.194,4.194,0,0,0,.518,2.286,1.685,1.685,0,0,0,1.5.795,1.888,1.888,0,0,0,1.846-1.109V11.622a1.861,1.861,0,0,0-1.826-1.109Q70.953,10.514,70.953,13.839ZM84.7,19.2a5.187,5.187,0,0,1-3.784-1.426,5.068,5.068,0,0,1-1.46-3.8V13.7a6.383,6.383,0,0,1,.615-2.847,4.515,4.515,0,0,1,1.743-1.934,4.893,4.893,0,0,1,2.573-.679A4.385,4.385,0,0,1,87.8,9.605a5.555,5.555,0,0,1,1.245,3.877v1.152H82.32a2.622,2.622,0,0,0,.825,1.66,2.5,2.5,0,0,0,1.743.625,3.046,3.046,0,0,0,2.549-1.182l1.387,1.553a4.237,4.237,0,0,1-1.719,1.4A5.639,5.639,0,0,1,84.7,19.2Zm-.322-8.682a1.764,1.764,0,0,0-1.362.569,2.946,2.946,0,0,0-.669,1.628h3.926v-.226a2.1,2.1,0,0,0-.508-1.457A1.819,1.819,0,0,0,84.381,10.514Zm20.762,3.3a6.337,6.337,0,0,1-1.108,3.911,3.554,3.554,0,0,1-2.993,1.47,3.292,3.292,0,0,1-2.588-1.113v4.98H95.631V8.434h2.617l.1,1.035a3.317,3.317,0,0,1,2.676-1.23,3.578,3.578,0,0,1,3.037,1.445,6.509,6.509,0,0,1,1.084,3.984ZM102.32,13.6a4.182,4.182,0,0,0-.522-2.282,1.7,1.7,0,0,0-1.519-.8,1.847,1.847,0,0,0-1.826,1.019v4.339A1.879,1.879,0,0,0,100.3,16.92Q102.32,16.92,102.32,13.6Zm10.508-2.519A7.667,7.667,0,0,0,111.813,11a2.067,2.067,0,0,0-2.1,1.084V19h-2.822V8.434h2.666l.078,1.26a2.615,2.615,0,0,1,2.354-1.455,2.957,2.957,0,0,1,.879.127Zm.566,2.539a6.266,6.266,0,0,1,.605-2.8,4.432,4.432,0,0,1,1.743-1.9,5.086,5.086,0,0,1,2.642-.674,4.812,4.812,0,0,1,3.491,1.309,5.252,5.252,0,0,1,1.509,3.555l.02.723a5.523,5.523,0,0,1-1.357,3.9,5.261,5.261,0,0,1-7.29,0,5.62,5.62,0,0,1-1.362-3.984Zm2.822.2a3.95,3.95,0,0,0,.566,2.3,2.035,2.035,0,0,0,3.223.01,4.322,4.322,0,0,0,.576-2.518,3.91,3.91,0,0,0-.576-2.289,1.873,1.873,0,0,0-1.621-.812,1.842,1.842,0,0,0-1.6.807A4.395,4.395,0,0,0,116.217,13.819Zm8.486-.181A6.368,6.368,0,0,1,125.812,9.7a3.6,3.6,0,0,1,3.032-1.465,3.236,3.236,0,0,1,2.549,1.152V4h2.832V19h-2.549l-.137-1.123a3.321,3.321,0,0,1-2.715,1.318,3.587,3.587,0,0,1-2.993-1.47A6.573,6.573,0,0,1,124.7,13.639Zm2.822.2a4.194,4.194,0,0,0,.518,2.286,1.685,1.685,0,0,0,1.5.795,1.888,1.888,0,0,0,1.846-1.109V11.622a1.861,1.861,0,0,0-1.826-1.109Q127.525,10.514,127.525,13.839Zm15.215,4.086a3.539,3.539,0,0,1-2.891,1.27,3.338,3.338,0,0,1-2.593-.977,4.169,4.169,0,0,1-.913-2.861V8.434h2.822v6.834q0,1.652,1.5,1.652a2.038,2.038,0,0,0,1.973-1V8.434h2.832V19h-2.656ZM152,16.92a1.851,1.851,0,0,0,1.27-.43,1.506,1.506,0,0,0,.508-1.143h2.646a3.62,3.62,0,0,1-.586,1.968,3.866,3.866,0,0,1-1.577,1.387,4.936,4.936,0,0,1-2.212.493,4.587,4.587,0,0,1-3.574-1.44,5.7,5.7,0,0,1-1.309-3.979V13.59a5.635,5.635,0,0,1,1.3-3.9,4.534,4.534,0,0,1,3.564-1.455,4.444,4.444,0,0,1,3.179,1.128,3.994,3.994,0,0,1,1.216,3h-2.646a1.939,1.939,0,0,0-.508-1.34,1.887,1.887,0,0,0-2.778.2,4.166,4.166,0,0,0-.5,2.333v.293a4.219,4.219,0,0,0,.5,2.347A1.721,1.721,0,0,0,152,16.92Zm9.414-11.084v2.6h1.807V10.5h-1.807v5.273a1.259,1.259,0,0,0,.225.84,1.128,1.128,0,0,0,.859.254,4.5,4.5,0,0,0,.83-.068v2.139a5.81,5.81,0,0,1-1.709.254q-2.969,0-3.027-3V10.5h-1.543V8.434h1.543v-2.6Zm2.646,7.783a6.267,6.267,0,0,1,.605-2.8,4.432,4.432,0,0,1,1.743-1.9,5.086,5.086,0,0,1,2.642-.674,4.812,4.812,0,0,1,3.491,1.309,5.252,5.252,0,0,1,1.509,3.555l.02.723a5.523,5.523,0,0,1-1.357,3.9,5.261,5.261,0,0,1-7.29,0,5.62,5.62,0,0,1-1.362-3.984Zm2.822.2a3.95,3.95,0,0,0,.566,2.3,2.035,2.035,0,0,0,3.223.01,4.322,4.322,0,0,0,.576-2.518,3.91,3.91,0,0,0-.576-2.289,1.873,1.873,0,0,0-1.621-.812,1.842,1.842,0,0,0-1.6.807A4.395,4.395,0,0,0,166.881,13.819Z" transform="translate(-3726 -4589)" fill="#12263f"/>
    <path id="Trazado_172582" data-name="Trazado 172582" d="M47,15.99V21h-2.93V6.781H49.62a6.417,6.417,0,0,1,2.817.586,4.318,4.318,0,0,1,1.87,1.665,4.643,4.643,0,0,1,.654,2.456,4.083,4.083,0,0,1-1.431,3.3,5.959,5.959,0,0,1-3.96,1.206Zm0-2.373H49.62a2.573,2.573,0,0,0,1.772-.547A1.989,1.989,0,0,0,52,11.508a2.345,2.345,0,0,0-.615-1.689,2.3,2.3,0,0,0-1.7-.664H47ZM59.767,21H56.935V10.434h2.832Zm-3-13.3a1.39,1.39,0,0,1,.425-1.045,1.831,1.831,0,0,1,2.31,0,1.382,1.382,0,0,1,.43,1.045A1.386,1.386,0,0,1,59.5,8.754a1.81,1.81,0,0,1-2.295,0A1.386,1.386,0,0,1,56.769,7.7Zm8.3,13.3H62.237V6h2.832Zm8.447,0a3.134,3.134,0,0,1-.283-.947A3.415,3.415,0,0,1,70.567,21.2a3.752,3.752,0,0,1-2.573-.9,2.89,2.89,0,0,1-1.021-2.266,2.986,2.986,0,0,1,1.245-2.578,6.144,6.144,0,0,1,3.6-.908h1.3v-.605a1.741,1.741,0,0,0-.376-1.172,1.479,1.479,0,0,0-1.187-.439,1.682,1.682,0,0,0-1.118.342,1.161,1.161,0,0,0-.405.938H67.208a2.835,2.835,0,0,1,.566-1.7,3.744,3.744,0,0,1,1.6-1.226,5.837,5.837,0,0,1,2.324-.444,4.611,4.611,0,0,1,3.1.981,3.433,3.433,0,0,1,1.147,2.759v4.58a5.052,5.052,0,0,0,.42,2.275V21Zm-2.334-1.963a2.431,2.431,0,0,0,1.152-.278,1.828,1.828,0,0,0,.781-.747V16.2H72.062q-2.119,0-2.256,1.465l-.01.166a1.13,1.13,0,0,0,.371.869A1.441,1.441,0,0,0,71.183,19.037Zm11.475-3.4A6.368,6.368,0,0,1,83.766,11.7,3.6,3.6,0,0,1,86.8,10.238a3.236,3.236,0,0,1,2.549,1.152V6h2.832V21H89.63l-.137-1.123A3.321,3.321,0,0,1,86.778,21.2a3.587,3.587,0,0,1-2.993-1.47A6.573,6.573,0,0,1,82.657,15.639Zm2.822.2A4.194,4.194,0,0,0,86,18.125a1.685,1.685,0,0,0,1.5.795,1.888,1.888,0,0,0,1.846-1.109V13.622a1.861,1.861,0,0,0-1.826-1.109Q85.479,12.514,85.479,15.839ZM99.229,21.2a5.187,5.187,0,0,1-3.784-1.426,5.068,5.068,0,0,1-1.46-3.8V15.7a6.383,6.383,0,0,1,.615-2.847,4.515,4.515,0,0,1,1.743-1.934,4.893,4.893,0,0,1,2.573-.679,4.385,4.385,0,0,1,3.413,1.367,5.555,5.555,0,0,1,1.245,3.877v1.152H96.847a2.622,2.622,0,0,0,.825,1.66,2.5,2.5,0,0,0,1.743.625,3.046,3.046,0,0,0,2.549-1.182l1.387,1.553a4.237,4.237,0,0,1-1.719,1.4A5.639,5.639,0,0,1,99.229,21.2Zm-.322-8.682a1.764,1.764,0,0,0-1.362.569,2.946,2.946,0,0,0-.669,1.628H100.8v-.226a2.1,2.1,0,0,0-.508-1.457A1.819,1.819,0,0,0,98.907,12.514Zm16.318,5.508q.156-.781-1.084-1.133l-.889-.225q-3.154-.869-3.066-3.066a3.035,3.035,0,0,1,1.323-2.437,4.927,4.927,0,0,1,3.071-.923,4.42,4.42,0,0,1,2.891.947,3.121,3.121,0,0,1,1.123,2.471l-2.734-.01a1.2,1.2,0,0,0-1.348-1.377,1.939,1.939,0,0,0-1.118.322,1.327,1.327,0,0,0-.581.869q-.146.781,1.182,1.1l.391.088a7.856,7.856,0,0,1,2.061.737,3.11,3.11,0,0,1,1.1,1.03,2.55,2.55,0,0,1,.356,1.475,2.814,2.814,0,0,1-.649,1.758,3.975,3.975,0,0,1-1.7,1.162,5.92,5.92,0,0,1-2.271.381,4.461,4.461,0,0,1-2.93-1.011,3.259,3.259,0,0,1-1.191-2.563l2.6.02a1.428,1.428,0,0,0,1.621,1.533,2.306,2.306,0,0,0,1.255-.312A1.234,1.234,0,0,0,115.226,18.021Zm14.092-2.275a8.727,8.727,0,0,1-.869,2.949,4.782,4.782,0,0,1-1.65,1.914,3.823,3.823,0,0,1-2.187.6,3.05,3.05,0,0,1-2.422-1.143l-.967,5h-2.754L121,10.434l2.539-.01-.186,1.064a3.374,3.374,0,0,1,2.7-1.25,3,3,0,0,1,2.412,1.128,4.9,4.9,0,0,1,.918,2.954A11.418,11.418,0,0,1,129.317,15.746Zm-2.734-.2.059-.939a2.612,2.612,0,0,0-.347-1.506,1.244,1.244,0,0,0-1.069-.577,2.273,2.273,0,0,0-1.982,1.017l-.791,4.362A1.541,1.541,0,0,0,124,18.93a1.987,1.987,0,0,0,1.66-.773A5.292,5.292,0,0,0,126.583,15.546Zm10.84-2.466a5.686,5.686,0,0,0-.928-.1,2.67,2.67,0,0,0-2.334,1.1L132.94,21h-2.754l1.836-10.566,2.588-.01-.254,1.289a2.906,2.906,0,0,1,2.461-1.494,4.017,4.017,0,0,1,.957.137ZM140.274,21H137.5l1.836-10.566h2.773Zm-.615-13.252a1.376,1.376,0,0,1,.43-1.084,1.653,1.653,0,0,1,2.168-.049,1.37,1.37,0,0,1,.479,1.035,1.415,1.415,0,0,1-.405,1.055,1.519,1.519,0,0,1-1.108.469,1.544,1.544,0,0,1-1.079-.371A1.363,1.363,0,0,1,139.659,7.748Zm7.3,2.676-.234,1.25a3.8,3.8,0,0,1,3.076-1.436,2.535,2.535,0,0,1,2.207,1.094,4.407,4.407,0,0,1,.518,2.949L151.417,21h-2.754l1.133-6.748a3.16,3.16,0,0,0,.02-.693,1.118,1.118,0,0,0-1.25-1.025,2.37,2.37,0,0,0-1.943,1.006L145.3,21H142.55l1.836-10.566Zm12.2-2.588-.459,2.6h1.758L160.1,12.5h-1.758l-.9,5.293a1.346,1.346,0,0,0,.078.762q.137.264.664.283.156.01.84-.049l-.2,2.158a4.632,4.632,0,0,1-1.582.225,2.482,2.482,0,0,1-2.021-.85,3.07,3.07,0,0,1-.547-2.246l.908-5.576h-1.494l.361-2.07h1.494l.449-2.6Z" transform="translate(-2974 -4422)" fill="#12263f"/>
    <path id="Trazado_172601" data-name="Trazado 172601" d="M5,0H198a5,5,0,0,1,5,5V55a5,5,0,0,1-5,5H5a5,5,0,0,1-5-5V5A5,5,0,0,1,5,0Z" transform="translate(-3726 -4547)" fill="#ffca28"/>
    <path id="Trazado_172603" data-name="Trazado 172603" d="M5,0H198a5,5,0,0,1,5,5V54a5,5,0,0,1-5,5H5a5,5,0,0,1-5-5V5A5,5,0,0,1,5,0Z" transform="translate(-3726 -4469)" fill="#ffca28"/>
    <path id="Trazado_172605" data-name="Trazado 172605" d="M5,0H198a5,5,0,0,1,5,5V55a5,5,0,0,1-5,5H5a5,5,0,0,1-5-5V5A5,5,0,0,1,5,0Z" transform="translate(-3726 -4392)" fill="#ffca28"/>
    <path id="Trazado_172606" data-name="Trazado 172606" d="M5,0H198a5,5,0,0,1,5,5V55a5,5,0,0,1-5,5H5a5,5,0,0,1-5-5V5A5,5,0,0,1,5,0Z" transform="translate(-3726 -4314)" fill="#ffca28"/>
    <path id="Trazado_172607" data-name="Trazado 172607" d="M5,0H198a5,5,0,0,1,5,5V55a5,5,0,0,1-5,5H5a5,5,0,0,1-5-5V5A5,5,0,0,1,5,0Z" transform="translate(-3726 -4236)" fill="#ffca28"/>
    <path id="Trazado_172608" data-name="Trazado 172608" d="M5,0H198a5,5,0,0,1,5,5V54a5,5,0,0,1-5,5H5a5,5,0,0,1-5-5V5A5,5,0,0,1,5,0Z" transform="translate(-3726 -4158)" fill="#ffca28"/>
    <path id="Trazado_172626" data-name="Trazado 172626" d="M5,0H198a5,5,0,0,1,5,5V54a5,5,0,0,1-5,5H5a5,5,0,0,1-5-5V5A5,5,0,0,1,5,0Z" transform="translate(-3726 -4054)" fill="#ffca28"/>
    <path id="Trazado_172602" data-name="Trazado 172602" d="M5,0H57V60H5a5,5,0,0,1-5-5V5A5,5,0,0,1,5,0Z" transform="translate(-3726 -4547)" fill="#ffa726"/>
    <path id="Trazado_172604" data-name="Trazado 172604" d="M5,0H57V59H5a5,5,0,0,1-5-5V5A5,5,0,0,1,5,0Z" transform="translate(-3726 -4469)" fill="#ffa726"/>
    <path id="Trazado_172609" data-name="Trazado 172609" d="M5,0H57V60H5a5,5,0,0,1-5-5V5A5,5,0,0,1,5,0Z" transform="translate(-3726 -4392)" fill="#ffa726"/>
    <path id="Trazado_172610" data-name="Trazado 172610" d="M5,0H57V60H5a5,5,0,0,1-5-5V5A5,5,0,0,1,5,0Z" transform="translate(-3726 -4314)" fill="#ffa726"/>
    <path id="Trazado_172611" data-name="Trazado 172611" d="M5,0H57V60H5a5,5,0,0,1-5-5V5A5,5,0,0,1,5,0Z" transform="translate(-3726 -4236)" fill="#ffa726"/>
    <path id="Trazado_172612" data-name="Trazado 172612" d="M5,0H57V59H5a5,5,0,0,1-5-5V5A5,5,0,0,1,5,0Z" transform="translate(-3726 -4158)" fill="#ffa726"/>
    <path id="Trazado_172627" data-name="Trazado 172627" d="M5,0H57V59H5a5,5,0,0,1-5-5V5A5,5,0,0,1,5,0Z" transform="translate(-3726 -4054)" fill="#ffa726"/>
    <path id="Trazado_172613" data-name="Trazado 172613" d="M22.642,19H19.233V13.063H14.185V19H10.757V4.781h3.428v5.645h5.049V4.781h3.408ZM31.9,19H28.6V8.492l-3.242.947v-2.5L31.6,4.781h.3Z" transform="translate(-3659 -4532)" fill="#12263f"/>
    <path id="Trazado_172614" data-name="Trazado 172614" d="M22.642,19H19.233V13.063H14.185V19H10.757V4.781h3.428v5.645h5.049V4.781h3.408Zm11.885,0H24.6V16.852l4.57-4.8q1.689-1.924,1.689-3.057a2.126,2.126,0,0,0-.4-1.4A1.43,1.43,0,0,0,29.3,7.115a1.447,1.447,0,0,0-1.221.64,2.629,2.629,0,0,0-.469,1.6h-3.3a4.67,4.67,0,0,1,.654-2.417A4.588,4.588,0,0,1,26.782,5.2a5.4,5.4,0,0,1,2.6-.625,5.308,5.308,0,0,1,3.55,1.064A3.8,3.8,0,0,1,34.175,8.7a4.439,4.439,0,0,1-.312,1.636A7.173,7.173,0,0,1,32.891,12a24.476,24.476,0,0,1-2.124,2.339l-1.836,2.119h5.6Z" transform="translate(-3659 -4454)" fill="#12263f"/>
    <path id="Trazado_172615" data-name="Trazado 172615" d="M22.642,19H19.233V13.063H14.185V19H10.757V4.781h3.428v5.645h5.049V4.781h3.408Zm4.971-8.486h1.553a1.614,1.614,0,0,0,1.846-1.807,1.562,1.562,0,0,0-.439-1.147,1.666,1.666,0,0,0-1.24-.444,1.784,1.784,0,0,0-1.138.381,1.162,1.162,0,0,0-.483.947H24.419a3.369,3.369,0,0,1,.625-2,4.127,4.127,0,0,1,1.733-1.372,5.926,5.926,0,0,1,2.437-.493,5.823,5.823,0,0,1,3.73,1.084A3.6,3.6,0,0,1,34.3,8.639a3,3,0,0,1-.562,1.733A4,4,0,0,1,32.1,11.7a3.823,3.823,0,0,1,1.777,1.245,3.279,3.279,0,0,1,.645,2.065,3.669,3.669,0,0,1-1.465,3.047A6.08,6.08,0,0,1,29.214,19.2a6.306,6.306,0,0,1-2.593-.532,4.062,4.062,0,0,1-1.812-1.475,3.834,3.834,0,0,1-.615-2.144H27.5a1.482,1.482,0,0,0,.527,1.133,1.862,1.862,0,0,0,1.3.479,1.95,1.95,0,0,0,1.387-.483,1.616,1.616,0,0,0,.518-1.235,1.889,1.889,0,0,0-.537-1.523,2.245,2.245,0,0,0-1.484-.449h-1.6Z" transform="translate(-3659 -4376)" fill="#12263f"/>
    <path id="Trazado_172616" data-name="Trazado 172616" d="M22.642,19H19.233V13.063H14.185V19H10.757V4.781h3.428v5.645h5.049V4.781h3.408ZM33.3,13.443h1.445v2.539H33.3V19H30V15.982h-5.5l-.2-2.012L30,4.811V4.781H33.3Zm-5.85,0H30V9.068L29.8,9.4Z" transform="translate(-3659 -4298)" fill="#12263f"/>
    <path id="Trazado_172617" data-name="Trazado 172617" d="M22.642,19H19.233V13.063H14.185V19H10.757V4.781h3.428v5.645h5.049V4.781h3.408ZM24.8,12.055l.869-7.273h8.311V7.32H28.345l-.322,2.844a3.882,3.882,0,0,1,.923-.363,4.643,4.643,0,0,1,4.375,1.1,5.055,5.055,0,0,1,1.138,3.521,5.046,5.046,0,0,1-.61,2.476,4.2,4.2,0,0,1-1.714,1.7,5.411,5.411,0,0,1-2.607.6,5.822,5.822,0,0,1-2.51-.551,4.5,4.5,0,0,1-1.836-1.512,3.675,3.675,0,0,1-.654-2.171h3.3a1.867,1.867,0,0,0,.5,1.238,1.581,1.581,0,0,0,1.182.458q1.66,0,1.66-2.456,0-2.271-2.031-2.271a2.027,2.027,0,0,0-1.719.741Z" transform="translate(-3659 -4221)" fill="#12263f"/>
    <path id="Trazado_172622" data-name="Trazado 172622" d="M22.642,19H19.233V13.063H14.185V19H10.757V4.781h3.428v5.645h5.049V4.781h3.408ZM32.554,4.576V7.164h-.146a4.941,4.941,0,0,0-3.032.884,3.732,3.732,0,0,0-1.46,2.456A3.848,3.848,0,0,1,30.728,9.41a3.59,3.59,0,0,1,2.939,1.348,5.436,5.436,0,0,1,1.094,3.535,4.977,4.977,0,0,1-.64,2.49,4.564,4.564,0,0,1-1.787,1.772,5.135,5.135,0,0,1-2.544.64,5.307,5.307,0,0,1-2.705-.688,4.733,4.733,0,0,1-1.855-1.968,6.48,6.48,0,0,1-.684-2.949V12.271a8.208,8.208,0,0,1,.942-3.95,6.832,6.832,0,0,1,2.69-2.749,7.692,7.692,0,0,1,3.877-1Zm-2.969,7.373a1.889,1.889,0,0,0-1.094.3,1.917,1.917,0,0,0-.654.739v.982q0,2.684,1.865,2.684a1.515,1.515,0,0,0,1.255-.671,2.727,2.727,0,0,0,.5-1.682,2.677,2.677,0,0,0-.513-1.7A1.642,1.642,0,0,0,29.585,11.949Z" transform="translate(-3659 -4143)" fill="#12263f"/>
    <path id="Trazado_172628" data-name="Trazado 172628" d="M20.2,17H17.136V11.656H12.592V17H9.507V4.2h3.085v5.08h4.544V4.2H20.2Zm10.7,0H21.97V15.066l4.113-4.324A4.909,4.909,0,0,0,27.6,7.991a1.913,1.913,0,0,0-.36-1.257A1.287,1.287,0,0,0,26.2,6.3a1.3,1.3,0,0,0-1.1.576,2.366,2.366,0,0,0-.422,1.437H21.707A4.2,4.2,0,0,1,22.3,6.141a4.129,4.129,0,0,1,1.635-1.56,4.856,4.856,0,0,1,2.338-.562,4.777,4.777,0,0,1,3.195.958,3.42,3.42,0,0,1,1.121,2.751A4,4,0,0,1,30.3,9.2a6.456,6.456,0,0,1-.875,1.5,22.029,22.029,0,0,1-1.912,2.1l-1.652,1.907H30.9Zm1.67-6.251L33.352,4.2h7.479V6.488H35.76l-.29,2.56a3.493,3.493,0,0,1,.831-.327,4.179,4.179,0,0,1,3.938.988,4.549,4.549,0,0,1,1.024,3.168,4.541,4.541,0,0,1-.549,2.228A3.776,3.776,0,0,1,39.17,16.64a4.87,4.87,0,0,1-2.347.536,5.24,5.24,0,0,1-2.259-.5,4.052,4.052,0,0,1-1.652-1.361,3.308,3.308,0,0,1-.589-1.954h2.971a1.68,1.68,0,0,0,.448,1.114,1.423,1.423,0,0,0,1.063.412q1.494,0,1.494-2.21,0-2.044-1.828-2.044a1.824,1.824,0,0,0-1.547.667ZM51.7,11.771a6.11,6.11,0,0,1-1.165,4,4.551,4.551,0,0,1-6.587-.009,6.1,6.1,0,0,1-1.169-3.99V9.433a6.11,6.11,0,0,1,1.165-4,4.551,4.551,0,0,1,6.587.009,6.116,6.116,0,0,1,1.169,4ZM48.742,9.055a4.564,4.564,0,0,0-.36-2.061,1.2,1.2,0,0,0-1.143-.681,1.176,1.176,0,0,0-1.112.633,4.3,4.3,0,0,0-.374,1.916v3.27a4.6,4.6,0,0,0,.36,2.1,1.209,1.209,0,0,0,1.143.664,1.193,1.193,0,0,0,1.116-.646,4.39,4.39,0,0,0,.369-2.026Z" transform="translate(-3665 -4038)" fill="#12263f"/>
    <path id="Icon_awesome-star" data-name="Icon awesome-star" d="M13.7.954l-3.351,7.1-7.5,1.142a1.738,1.738,0,0,0-.908,2.927l5.424,5.522-1.283,7.8a1.657,1.657,0,0,0,2.381,1.807l6.707-3.683,6.707,3.683a1.658,1.658,0,0,0,2.381-1.807l-1.283-7.8L28.4,12.122a1.738,1.738,0,0,0-.908-2.927l-7.5-1.142L16.641.954a1.613,1.613,0,0,0-2.946,0Z" transform="translate(-3712.311 -4530.99)" fill="none" stroke="#12263f" stroke-linecap="round" stroke-linejoin="round" stroke-width="3"/>
    <path id="Icon_awesome-star-2" data-name="Icon awesome-star" d="M13.7.954l-3.351,7.1-7.5,1.142a1.738,1.738,0,0,0-.908,2.927l5.424,5.522-1.283,7.8a1.657,1.657,0,0,0,2.381,1.807l6.707-3.683,6.707,3.683a1.658,1.658,0,0,0,2.381-1.807l-1.283-7.8L28.4,12.122a1.738,1.738,0,0,0-.908-2.927l-7.5-1.142L16.641.954a1.613,1.613,0,0,0-2.946,0Z" transform="translate(-3712.311 -4453.245)" fill="none" stroke="#12263f" stroke-linecap="round" stroke-linejoin="round" stroke-width="3"/>
    <path id="Icon_awesome-star-3" data-name="Icon awesome-star" d="M13.7.954l-3.351,7.1-7.5,1.142a1.738,1.738,0,0,0-.908,2.927l5.424,5.522-1.283,7.8a1.657,1.657,0,0,0,2.381,1.807l6.707-3.683,6.707,3.683a1.658,1.658,0,0,0,2.381-1.807l-1.283-7.8L28.4,12.122a1.738,1.738,0,0,0-.908-2.927l-7.5-1.142L16.641.954a1.613,1.613,0,0,0-2.946,0Z" transform="translate(-3712.311 -4375.5)" fill="none" stroke="#12263f" stroke-linecap="round" stroke-linejoin="round" stroke-width="3"/>
    <path id="Icon_awesome-star-4" data-name="Icon awesome-star" d="M13.7.954l-3.351,7.1-7.5,1.142a1.738,1.738,0,0,0-.908,2.927l5.424,5.522-1.283,7.8a1.657,1.657,0,0,0,2.381,1.807l6.707-3.683,6.707,3.683a1.658,1.658,0,0,0,2.381-1.807l-1.283-7.8L28.4,12.122a1.738,1.738,0,0,0-.908-2.927l-7.5-1.142L16.641.954a1.613,1.613,0,0,0-2.946,0Z" transform="translate(-3712.311 -4297.756)" fill="none" stroke="#12263f" stroke-linecap="round" stroke-linejoin="round" stroke-width="3"/>
    <path id="Icon_awesome-star-5" data-name="Icon awesome-star" d="M13.7.954l-3.351,7.1-7.5,1.142a1.738,1.738,0,0,0-.908,2.927l5.424,5.522-1.283,7.8a1.657,1.657,0,0,0,2.381,1.807l6.707-3.683,6.707,3.683a1.658,1.658,0,0,0,2.381-1.807l-1.283-7.8L28.4,12.122a1.738,1.738,0,0,0-.908-2.927l-7.5-1.142L16.641.954a1.613,1.613,0,0,0-2.946,0Z" transform="translate(-3712.311 -4220.011)" fill="none" stroke="#12263f" stroke-linecap="round" stroke-linejoin="round" stroke-width="3"/>
    <path id="Icon_awesome-star-6" data-name="Icon awesome-star" d="M13.7.954l-3.351,7.1-7.5,1.142a1.738,1.738,0,0,0-.908,2.927l5.424,5.522-1.283,7.8a1.657,1.657,0,0,0,2.381,1.807l6.707-3.683,6.707,3.683a1.658,1.658,0,0,0,2.381-1.807l-1.283-7.8L28.4,12.122a1.738,1.738,0,0,0-.908-2.927l-7.5-1.142L16.641.954a1.613,1.613,0,0,0-2.946,0Z" transform="translate(-3712.311 -4142.267)" fill="none" stroke="#12263f" stroke-linecap="round" stroke-linejoin="round" stroke-width="3"/>
    <path id="Icon_awesome-star-7" data-name="Icon awesome-star" d="M13.7.954l-3.351,7.1-7.5,1.142a1.738,1.738,0,0,0-.908,2.927l5.424,5.522-1.283,7.8a1.657,1.657,0,0,0,2.381,1.807l6.707-3.683,6.707,3.683a1.658,1.658,0,0,0,2.381-1.807l-1.283-7.8L28.4,12.122a1.738,1.738,0,0,0-.908-2.927l-7.5-1.142L16.641.954a1.613,1.613,0,0,0-2.946,0Z" transform="translate(-3712.311 -4038.209)" fill="none" stroke="#12263f" stroke-linecap="round" stroke-linejoin="round" stroke-width="3"/>
    <path id="Trazado_26736" data-name="Trazado 26736" d="M8.913,18.238a2.206,2.206,0,1,1-2.206-2.206A2.206,2.206,0,0,1,8.913,18.238Z" transform="translate(-3604.952 -4535.381)" fill="#12263f"/>
    <path id="Trazado_26737" data-name="Trazado 26737" d="M8.913,9.519A2.206,2.206,0,1,1,6.706,7.313,2.206,2.206,0,0,1,8.913,9.519Z" transform="translate(-3604.952 -4535.313)" fill="#12263f"/>
    <path id="Trazado_26738" data-name="Trazado 26738" d="M8.913,26.956A2.206,2.206,0,1,1,6.706,24.75a2.206,2.206,0,0,1,2.206,2.206Z" transform="translate(-3604.952 -4535.449)" fill="#12263f"/>
    <path id="Trazado_26741" data-name="Trazado 26741" d="M13.6,10.678H62.06a1.261,1.261,0,0,0,0-2.522H13.6a1.261,1.261,0,1,0,0,2.522Z" transform="translate(-3605.126 -4535.211)" fill="#12263f"/>
    <path id="Trazado_26744" data-name="Trazado 26744" d="M13.6,10.678H62.06a1.261,1.261,0,0,0,0-2.522H13.6a1.261,1.261,0,1,0,0,2.522Z" transform="translate(-3605.126 -4526.561)" fill="#12263f"/>
    <path id="Trazado_26745" data-name="Trazado 26745" d="M13.6,10.678H62.06a1.261,1.261,0,0,0,0-2.522H13.6a1.261,1.261,0,1,0,0,2.522Z" transform="translate(-3605.126 -4517.91)" fill="#12263f"/>
    <path id="Trazado_26736-2" data-name="Trazado 26736" d="M8.913,18.238a2.206,2.206,0,1,1-2.206-2.206A2.206,2.206,0,0,1,8.913,18.238Z" transform="translate(-3604.952 -4457.636)" fill="#12263f"/>
    <path id="Trazado_26737-2" data-name="Trazado 26737" d="M8.913,9.519A2.206,2.206,0,1,1,6.706,7.313,2.206,2.206,0,0,1,8.913,9.519Z" transform="translate(-3604.952 -4457.568)" fill="#12263f"/>
    <path id="Trazado_26738-2" data-name="Trazado 26738" d="M8.913,26.956A2.206,2.206,0,1,1,6.706,24.75a2.206,2.206,0,0,1,2.206,2.206Z" transform="translate(-3604.952 -4457.705)" fill="#12263f"/>
    <path id="Trazado_26741-2" data-name="Trazado 26741" d="M13.6,10.678H62.06a1.261,1.261,0,0,0,0-2.522H13.6a1.261,1.261,0,1,0,0,2.522Z" transform="translate(-3605.126 -4457.466)" fill="#12263f"/>
    <path id="Trazado_26744-2" data-name="Trazado 26744" d="M13.6,10.678H62.06a1.261,1.261,0,0,0,0-2.522H13.6a1.261,1.261,0,1,0,0,2.522Z" transform="translate(-3605.126 -4448.816)" fill="#12263f"/>
    <path id="Trazado_26745-2" data-name="Trazado 26745" d="M13.6,10.678H62.06a1.261,1.261,0,0,0,0-2.522H13.6a1.261,1.261,0,1,0,0,2.522Z" transform="translate(-3605.126 -4440.166)" fill="#12263f"/>
    <path id="Trazado_26736-3" data-name="Trazado 26736" d="M8.913,18.238a2.206,2.206,0,1,1-2.206-2.206A2.206,2.206,0,0,1,8.913,18.238Z" transform="translate(-3604.952 -4379.892)" fill="#12263f"/>
    <path id="Trazado_26737-3" data-name="Trazado 26737" d="M8.913,9.519A2.206,2.206,0,1,1,6.706,7.313,2.206,2.206,0,0,1,8.913,9.519Z" transform="translate(-3604.952 -4379.824)" fill="#12263f"/>
    <path id="Trazado_26738-3" data-name="Trazado 26738" d="M8.913,26.956A2.206,2.206,0,1,1,6.706,24.75a2.206,2.206,0,0,1,2.206,2.206Z" transform="translate(-3604.952 -4379.96)" fill="#12263f"/>
    <path id="Trazado_26741-3" data-name="Trazado 26741" d="M13.6,10.678H62.06a1.261,1.261,0,0,0,0-2.522H13.6a1.261,1.261,0,1,0,0,2.522Z" transform="translate(-3605.126 -4379.722)" fill="#12263f"/>
    <path id="Trazado_26744-3" data-name="Trazado 26744" d="M13.6,10.678H62.06a1.261,1.261,0,0,0,0-2.522H13.6a1.261,1.261,0,1,0,0,2.522Z" transform="translate(-3605.126 -4371.071)" fill="#12263f"/>
    <path id="Trazado_26745-3" data-name="Trazado 26745" d="M13.6,10.678H62.06a1.261,1.261,0,0,0,0-2.522H13.6a1.261,1.261,0,1,0,0,2.522Z" transform="translate(-3605.126 -4362.421)" fill="#12263f"/>
    <path id="Trazado_26736-4" data-name="Trazado 26736" d="M8.913,18.238a2.206,2.206,0,1,1-2.206-2.206A2.206,2.206,0,0,1,8.913,18.238Z" transform="translate(-3604.952 -4302.147)" fill="#12263f"/>
    <path id="Trazado_26737-4" data-name="Trazado 26737" d="M8.913,9.519A2.206,2.206,0,1,1,6.706,7.313,2.206,2.206,0,0,1,8.913,9.519Z" transform="translate(-3604.952 -4302.079)" fill="#12263f"/>
    <path id="Trazado_26738-4" data-name="Trazado 26738" d="M8.913,26.956A2.206,2.206,0,1,1,6.706,24.75a2.206,2.206,0,0,1,2.206,2.206Z" transform="translate(-3604.952 -4302.215)" fill="#12263f"/>
    <path id="Trazado_26741-4" data-name="Trazado 26741" d="M13.6,10.678H62.06a1.261,1.261,0,0,0,0-2.522H13.6a1.261,1.261,0,1,0,0,2.522Z" transform="translate(-3605.126 -4301.977)" fill="#12263f"/>
    <path id="Trazado_26744-4" data-name="Trazado 26744" d="M13.6,10.678H62.06a1.261,1.261,0,0,0,0-2.522H13.6a1.261,1.261,0,1,0,0,2.522Z" transform="translate(-3605.126 -4293.327)" fill="#12263f"/>
    <path id="Trazado_26745-4" data-name="Trazado 26745" d="M13.6,10.678H62.06a1.261,1.261,0,0,0,0-2.522H13.6a1.261,1.261,0,1,0,0,2.522Z" transform="translate(-3605.126 -4284.676)" fill="#12263f"/>
    <path id="Trazado_26736-5" data-name="Trazado 26736" d="M8.913,18.238a2.206,2.206,0,1,1-2.206-2.206A2.206,2.206,0,0,1,8.913,18.238Z" transform="translate(-3604.952 -4224.403)" fill="#12263f"/>
    <path id="Trazado_26737-5" data-name="Trazado 26737" d="M8.913,9.519A2.206,2.206,0,1,1,6.706,7.313,2.206,2.206,0,0,1,8.913,9.519Z" transform="translate(-3604.952 -4224.335)" fill="#12263f"/>
    <path id="Trazado_26738-5" data-name="Trazado 26738" d="M8.913,26.956A2.206,2.206,0,1,1,6.706,24.75a2.206,2.206,0,0,1,2.206,2.206Z" transform="translate(-3604.952 -4224.471)" fill="#12263f"/>
    <path id="Trazado_26741-5" data-name="Trazado 26741" d="M13.6,10.678H62.06a1.261,1.261,0,0,0,0-2.522H13.6a1.261,1.261,0,1,0,0,2.522Z" transform="translate(-3605.126 -4224.233)" fill="#12263f"/>
    <path id="Trazado_26744-5" data-name="Trazado 26744" d="M13.6,10.678H62.06a1.261,1.261,0,0,0,0-2.522H13.6a1.261,1.261,0,1,0,0,2.522Z" transform="translate(-3605.126 -4215.583)" fill="#12263f"/>
    <path id="Trazado_26745-5" data-name="Trazado 26745" d="M13.6,10.678H62.06a1.261,1.261,0,0,0,0-2.522H13.6a1.261,1.261,0,1,0,0,2.522Z" transform="translate(-3605.126 -4206.932)" fill="#12263f"/>
    <path id="Trazado_26736-6" data-name="Trazado 26736" d="M8.913,18.238a2.206,2.206,0,1,1-2.206-2.206A2.206,2.206,0,0,1,8.913,18.238Z" transform="translate(-3604.952 -4146.658)" fill="#12263f"/>
    <path id="Trazado_26737-6" data-name="Trazado 26737" d="M8.913,9.519A2.206,2.206,0,1,1,6.706,7.313,2.206,2.206,0,0,1,8.913,9.519Z" transform="translate(-3604.952 -4146.59)" fill="#12263f"/>
    <path id="Trazado_26738-6" data-name="Trazado 26738" d="M8.913,26.956A2.206,2.206,0,1,1,6.706,24.75a2.206,2.206,0,0,1,2.206,2.206Z" transform="translate(-3604.952 -4146.727)" fill="#12263f"/>
    <path id="Trazado_26741-6" data-name="Trazado 26741" d="M13.6,10.678H62.06a1.261,1.261,0,0,0,0-2.522H13.6a1.261,1.261,0,1,0,0,2.522Z" transform="translate(-3605.126 -4146.488)" fill="#12263f"/>
    <path id="Trazado_26744-6" data-name="Trazado 26744" d="M13.6,10.678H62.06a1.261,1.261,0,0,0,0-2.522H13.6a1.261,1.261,0,1,0,0,2.522Z" transform="translate(-3605.126 -4137.838)" fill="#12263f"/>
    <path id="Trazado_26745-6" data-name="Trazado 26745" d="M13.6,10.678H62.06a1.261,1.261,0,0,0,0-2.522H13.6a1.261,1.261,0,1,0,0,2.522Z" transform="translate(-3605.126 -4129.188)" fill="#12263f"/>
    <path id="Trazado_26736-7" data-name="Trazado 26736" d="M8.913,18.238a2.206,2.206,0,1,1-2.206-2.206A2.206,2.206,0,0,1,8.913,18.238Z" transform="translate(-3601.364 -4042.6)" fill="#12263f"/>
    <path id="Trazado_26737-7" data-name="Trazado 26737" d="M8.913,9.519A2.206,2.206,0,1,1,6.706,7.313,2.206,2.206,0,0,1,8.913,9.519Z" transform="translate(-3601.364 -4042.532)" fill="#12263f"/>
    <path id="Trazado_26738-7" data-name="Trazado 26738" d="M8.913,26.956A2.206,2.206,0,1,1,6.706,24.75a2.206,2.206,0,0,1,2.206,2.206Z" transform="translate(-3601.364 -4042.668)" fill="#12263f"/>
    <path id="Trazado_26741-7" data-name="Trazado 26741" d="M13.6,10.678H62.06a1.261,1.261,0,0,0,0-2.522H13.6a1.261,1.261,0,1,0,0,2.522Z" transform="translate(-3601.538 -4042.43)" fill="#12263f"/>
    <path id="Trazado_26744-7" data-name="Trazado 26744" d="M13.6,10.678H62.06a1.261,1.261,0,0,0,0-2.522H13.6a1.261,1.261,0,1,0,0,2.522Z" transform="translate(-3601.538 -4033.78)" fill="#12263f"/>
    <path id="Trazado_26745-7" data-name="Trazado 26745" d="M13.6,10.678H62.06a1.261,1.261,0,0,0,0-2.522H13.6a1.261,1.261,0,1,0,0,2.522Z" transform="translate(-3601.538 -4025.129)" fill="#12263f"/>
    <path id="Trazado_26736-8" data-name="Trazado 26736" d="M8.913,18.238a2.206,2.206,0,1,1-2.206-2.206A2.206,2.206,0,0,1,8.913,18.238Z" transform="translate(-3631.226 -4094.031)" fill="#12263f"/>
    <path id="Trazado_26737-8" data-name="Trazado 26737" d="M8.913,9.519A2.206,2.206,0,1,1,6.706,7.313,2.206,2.206,0,0,1,8.913,9.519Z" transform="translate(-3631.226 -4093.963)" fill="#12263f"/>
    <path id="Trazado_26738-8" data-name="Trazado 26738" d="M8.913,26.956A2.206,2.206,0,1,1,6.706,24.75a2.206,2.206,0,0,1,2.206,2.206Z" transform="translate(-3631.226 -4094.099)" fill="#12263f"/>
    <path id="Trazado_172629" data-name="Trazado 172629" d="M5,0H258a5,5,0,0,1,5,5V55a5,5,0,0,1-5,5H5a5,5,0,0,1-5-5V5A5,5,0,0,1,5,0Z" transform="translate(-3001 -4381)" fill="#ff6148"/>
    <path id="Trazado_172630" data-name="Trazado 172630" d="M5,0H258a5,5,0,0,1,5,5V55a5,5,0,0,1-5,5H5a5,5,0,0,1-5-5V5A5,5,0,0,1,5,0Z" transform="translate(-3001 -4303)" fill="#ff6148"/>
    <path id="Trazado_172631" data-name="Trazado 172631" d="M5,0H258a5,5,0,0,1,5,5V54a5,5,0,0,1-5,5H5a5,5,0,0,1-5-5V5A5,5,0,0,1,5,0Z" transform="translate(-3001 -4225)" fill="#ff6148"/>
    <path id="Trazado_172632" data-name="Trazado 172632" d="M5,0H57V60H5a5,5,0,0,1-5-5V5A5,5,0,0,1,5,0Z" transform="translate(-3001 -4381)" fill="#cc4d39"/>
    <path id="Trazado_172633" data-name="Trazado 172633" d="M5,0H57V60H5a5,5,0,0,1-5-5V5A5,5,0,0,1,5,0Z" transform="translate(-3001 -4303)" fill="#cc4d39"/>
    <path id="Trazado_172634" data-name="Trazado 172634" d="M5,0H57V59H5a5,5,0,0,1-5-5V5A5,5,0,0,1,5,0Z" transform="translate(-3001 -4225)" fill="#cc4d39"/>
    <path id="Trazado_172635" data-name="Trazado 172635" d="M22.642,19H19.233V13.063H14.185V19H10.757V4.781h3.428v5.645h5.049V4.781h3.408ZM31.9,19H28.6V8.492l-3.242.947v-2.5L31.6,4.781h.3Z" transform="translate(-2934 -4365)" fill="#12263f"/>
    <path id="Trazado_172636" data-name="Trazado 172636" d="M22.642,19H19.233V13.063H14.185V19H10.757V4.781h3.428v5.645h5.049V4.781h3.408Zm11.885,0H24.6V16.852l4.57-4.8q1.689-1.924,1.689-3.057a2.126,2.126,0,0,0-.4-1.4A1.43,1.43,0,0,0,29.3,7.115a1.447,1.447,0,0,0-1.221.64,2.629,2.629,0,0,0-.469,1.6h-3.3a4.67,4.67,0,0,1,.654-2.417A4.588,4.588,0,0,1,26.782,5.2a5.4,5.4,0,0,1,2.6-.625,5.308,5.308,0,0,1,3.55,1.064A3.8,3.8,0,0,1,34.175,8.7a4.439,4.439,0,0,1-.312,1.636A7.173,7.173,0,0,1,32.891,12a24.476,24.476,0,0,1-2.124,2.339l-1.836,2.119h5.6Z" transform="translate(-2934 -4288)" fill="#12263f"/>
    <path id="Trazado_172637" data-name="Trazado 172637" d="M22.642,19H19.233V13.063H14.185V19H10.757V4.781h3.428v5.645h5.049V4.781h3.408Zm4.971-8.486h1.553a1.614,1.614,0,0,0,1.846-1.807,1.562,1.562,0,0,0-.439-1.147,1.666,1.666,0,0,0-1.24-.444,1.784,1.784,0,0,0-1.138.381,1.162,1.162,0,0,0-.483.947H24.419a3.369,3.369,0,0,1,.625-2,4.127,4.127,0,0,1,1.733-1.372,5.926,5.926,0,0,1,2.437-.493,5.823,5.823,0,0,1,3.73,1.084A3.6,3.6,0,0,1,34.3,8.639a3,3,0,0,1-.562,1.733A4,4,0,0,1,32.1,11.7a3.823,3.823,0,0,1,1.777,1.245,3.279,3.279,0,0,1,.645,2.065,3.669,3.669,0,0,1-1.465,3.047A6.08,6.08,0,0,1,29.214,19.2a6.306,6.306,0,0,1-2.593-.532,4.062,4.062,0,0,1-1.812-1.475,3.834,3.834,0,0,1-.615-2.144H27.5a1.482,1.482,0,0,0,.527,1.133,1.862,1.862,0,0,0,1.3.479,1.95,1.95,0,0,0,1.387-.483,1.616,1.616,0,0,0,.518-1.235,1.889,1.889,0,0,0-.537-1.523,2.245,2.245,0,0,0-1.484-.449h-1.6Z" transform="translate(-2934 -4210)" fill="#12263f"/>
    <path id="Icon_awesome-star-8" data-name="Icon awesome-star" d="M13.7.954l-3.351,7.1-7.5,1.142a1.738,1.738,0,0,0-.908,2.927l5.424,5.522-1.283,7.8a1.657,1.657,0,0,0,2.381,1.807l6.707-3.683,6.707,3.683a1.658,1.658,0,0,0,2.381-1.807l-1.283-7.8L28.4,12.122a1.738,1.738,0,0,0-.908-2.927l-7.5-1.142L16.641.954a1.613,1.613,0,0,0-2.946,0Z" transform="translate(-2987.492 -4364.736)" fill="none" stroke="#12263f" stroke-linecap="round" stroke-linejoin="round" stroke-width="3"/>
    <path id="Icon_awesome-star-9" data-name="Icon awesome-star" d="M13.7.954l-3.351,7.1-7.5,1.142a1.738,1.738,0,0,0-.908,2.927l5.424,5.522-1.283,7.8a1.657,1.657,0,0,0,2.381,1.807l6.707-3.683,6.707,3.683a1.658,1.658,0,0,0,2.381-1.807l-1.283-7.8L28.4,12.122a1.738,1.738,0,0,0-.908-2.927l-7.5-1.142L16.641.954a1.613,1.613,0,0,0-2.946,0Z" transform="translate(-2987.492 -4286.991)" fill="none" stroke="#12263f" stroke-linecap="round" stroke-linejoin="round" stroke-width="3"/>
    <path id="Icon_awesome-star-10" data-name="Icon awesome-star" d="M13.7.954l-3.351,7.1-7.5,1.142a1.738,1.738,0,0,0-.908,2.927l5.424,5.522-1.283,7.8a1.657,1.657,0,0,0,2.381,1.807l6.707-3.683,6.707,3.683a1.658,1.658,0,0,0,2.381-1.807l-1.283-7.8L28.4,12.122a1.738,1.738,0,0,0-.908-2.927l-7.5-1.142L16.641.954a1.613,1.613,0,0,0-2.946,0Z" transform="translate(-2987.492 -4209.247)" fill="none" stroke="#12263f" stroke-linecap="round" stroke-linejoin="round" stroke-width="3"/>
    <path id="Trazado_26736-9" data-name="Trazado 26736" d="M8.913,18.238a2.206,2.206,0,1,1-2.206-2.206A2.206,2.206,0,0,1,8.913,18.238Z" transform="translate(-2880.133 -4369.127)" fill="#12263f"/>
    <path id="Trazado_26737-9" data-name="Trazado 26737" d="M8.913,9.519A2.206,2.206,0,1,1,6.706,7.313,2.206,2.206,0,0,1,8.913,9.519Z" transform="translate(-2880.133 -4369.059)" fill="#12263f"/>
    <path id="Trazado_26738-9" data-name="Trazado 26738" d="M8.913,26.956A2.206,2.206,0,1,1,6.706,24.75a2.206,2.206,0,0,1,2.206,2.206Z" transform="translate(-2880.133 -4369.195)" fill="#12263f"/>
    <path id="Trazado_26741-8" data-name="Trazado 26741" d="M13.6,10.678H62.06a1.261,1.261,0,0,0,0-2.522H13.6a1.261,1.261,0,1,0,0,2.522Z" transform="translate(-2880.307 -4368.957)" fill="#12263f"/>
    <path id="Trazado_26744-8" data-name="Trazado 26744" d="M13.6,10.678H62.06a1.261,1.261,0,0,0,0-2.522H13.6a1.261,1.261,0,1,0,0,2.522Z" transform="translate(-2880.307 -4360.307)" fill="#12263f"/>
    <path id="Trazado_26745-8" data-name="Trazado 26745" d="M13.6,10.678H62.06a1.261,1.261,0,0,0,0-2.522H13.6a1.261,1.261,0,1,0,0,2.522Z" transform="translate(-2880.307 -4351.656)" fill="#12263f"/>
    <path id="Trazado_26736-10" data-name="Trazado 26736" d="M8.913,18.238a2.206,2.206,0,1,1-2.206-2.206A2.206,2.206,0,0,1,8.913,18.238Z" transform="translate(-2880.133 -4291.382)" fill="#12263f"/>
    <path id="Trazado_26737-10" data-name="Trazado 26737" d="M8.913,9.519A2.206,2.206,0,1,1,6.706,7.313,2.206,2.206,0,0,1,8.913,9.519Z" transform="translate(-2880.133 -4291.314)" fill="#12263f"/>
    <path id="Trazado_26738-10" data-name="Trazado 26738" d="M8.913,26.956A2.206,2.206,0,1,1,6.706,24.75a2.206,2.206,0,0,1,2.206,2.206Z" transform="translate(-2880.133 -4291.451)" fill="#12263f"/>
    <path id="Trazado_26741-9" data-name="Trazado 26741" d="M13.6,10.678H62.06a1.261,1.261,0,0,0,0-2.522H13.6a1.261,1.261,0,1,0,0,2.522Z" transform="translate(-2880.307 -4291.212)" fill="#12263f"/>
    <path id="Trazado_26744-9" data-name="Trazado 26744" d="M13.6,10.678H62.06a1.261,1.261,0,0,0,0-2.522H13.6a1.261,1.261,0,1,0,0,2.522Z" transform="translate(-2880.307 -4282.562)" fill="#12263f"/>
    <path id="Trazado_26745-9" data-name="Trazado 26745" d="M13.6,10.678H62.06a1.261,1.261,0,0,0,0-2.522H13.6a1.261,1.261,0,1,0,0,2.522Z" transform="translate(-2880.307 -4273.912)" fill="#12263f"/>
    <path id="Trazado_26736-11" data-name="Trazado 26736" d="M8.913,18.238a2.206,2.206,0,1,1-2.206-2.206A2.206,2.206,0,0,1,8.913,18.238Z" transform="translate(-2880.133 -4213.638)" fill="#12263f"/>
    <path id="Trazado_26737-11" data-name="Trazado 26737" d="M8.913,9.519A2.206,2.206,0,1,1,6.706,7.313,2.206,2.206,0,0,1,8.913,9.519Z" transform="translate(-2880.133 -4213.57)" fill="#12263f"/>
    <path id="Trazado_26738-11" data-name="Trazado 26738" d="M8.913,26.956A2.206,2.206,0,1,1,6.706,24.75a2.206,2.206,0,0,1,2.206,2.206Z" transform="translate(-2880.133 -4213.706)" fill="#12263f"/>
    <path id="Trazado_26741-10" data-name="Trazado 26741" d="M13.6,10.678H62.06a1.261,1.261,0,0,0,0-2.522H13.6a1.261,1.261,0,1,0,0,2.522Z" transform="translate(-2880.307 -4213.468)" fill="#12263f"/>
    <path id="Trazado_26744-10" data-name="Trazado 26744" d="M13.6,10.678H62.06a1.261,1.261,0,0,0,0-2.522H13.6a1.261,1.261,0,1,0,0,2.522Z" transform="translate(-2880.307 -4204.817)" fill="#12263f"/>
    <path id="Trazado_26745-10" data-name="Trazado 26745" d="M13.6,10.678H62.06a1.261,1.261,0,0,0,0-2.522H13.6a1.261,1.261,0,1,0,0,2.522Z" transform="translate(-2880.307 -4196.167)" fill="#12263f"/>
    <path id="Trazado_26746" data-name="Trazado 26746" d="M38.882,19.292v1.651a17.941,17.941,0,1,1-10.639-16.4" transform="translate(-2800.938 -4216.425)" fill="none" stroke="#1565c0" stroke-linecap="round" stroke-linejoin="round" stroke-width="3"/>
    <path id="Trazado_26747" data-name="Trazado 26747" d="M36.823,6,18.882,23.959,13.5,18.577" transform="translate(-2798.879 -4215.834)" fill="none" stroke="#1565c0" stroke-linecap="round" stroke-linejoin="round" stroke-width="3"/>
    <path id="Trazado_26746-2" data-name="Trazado 26746" d="M38.882,19.292v1.651a17.941,17.941,0,1,1-10.639-16.4" transform="translate(-2800.938 -4294.078)" fill="none" stroke="#1565c0" stroke-linecap="round" stroke-linejoin="round" stroke-width="3"/>
    <path id="Trazado_26747-2" data-name="Trazado 26747" d="M36.823,6,18.882,23.959,13.5,18.577" transform="translate(-2798.879 -4293.487)" fill="none" stroke="#1565c0" stroke-linecap="round" stroke-linejoin="round" stroke-width="3"/>
    <path id="Trazado_26746-3" data-name="Trazado 26746" d="M38.882,19.292v1.651a17.941,17.941,0,1,1-10.639-16.4" transform="translate(-2800.938 -4371.822)" fill="none" stroke="#1565c0" stroke-linecap="round" stroke-linejoin="round" stroke-width="3"/>
    <path id="Trazado_26747-3" data-name="Trazado 26747" d="M36.823,6,18.882,23.959,13.5,18.577" transform="translate(-2798.879 -4371.232)" fill="none" stroke="#1565c0" stroke-linecap="round" stroke-linejoin="round" stroke-width="3"/>
    <path id="Icon_awesome-user-alt" data-name="Icon awesome-user-alt" d="M14.537,16.354A8.177,8.177,0,1,0,6.36,8.177,8.179,8.179,0,0,0,14.537,16.354Zm7.268,1.817H18.676a9.885,9.885,0,0,1-8.279,0H7.268A7.268,7.268,0,0,0,0,25.439v.909a2.726,2.726,0,0,0,2.726,2.726H26.348a2.726,2.726,0,0,0,2.726-2.726v-.909A7.268,7.268,0,0,0,21.805,18.171Z" transform="translate(-2725.074 -4209.846)" fill="#40b8e2"/>
    <path id="Icon_awesome-user-alt-2" data-name="Icon awesome-user-alt" d="M14.537,16.354A8.177,8.177,0,1,0,6.36,8.177,8.179,8.179,0,0,0,14.537,16.354Zm7.268,1.817H18.676a9.885,9.885,0,0,1-8.279,0H7.268A7.268,7.268,0,0,0,0,25.439v.909a2.726,2.726,0,0,0,2.726,2.726H26.348a2.726,2.726,0,0,0,2.726-2.726v-.909A7.268,7.268,0,0,0,21.805,18.171Z" transform="translate(-2725.074 -4287.59)" fill="#ffa726"/>
    <path id="Icon_awesome-user-alt-3" data-name="Icon awesome-user-alt" d="M14.537,16.354A8.177,8.177,0,1,0,6.36,8.177,8.179,8.179,0,0,0,14.537,16.354Zm7.268,1.817H18.676a9.885,9.885,0,0,1-8.279,0H7.268A7.268,7.268,0,0,0,0,25.439v.909a2.726,2.726,0,0,0,2.726,2.726H26.348a2.726,2.726,0,0,0,2.726-2.726v-.909A7.268,7.268,0,0,0,21.805,18.171Z" transform="translate(-2725.074 -4365.335)" fill="#26a69a"/>
    <path id="Trazado_172583" data-name="Trazado 172583" d="M25.538,15.99V21h-2.93V6.781h5.547a6.417,6.417,0,0,1,2.817.586,4.318,4.318,0,0,1,1.87,1.665,4.643,4.643,0,0,1,.654,2.456,4.083,4.083,0,0,1-1.431,3.3,5.959,5.959,0,0,1-3.96,1.206Zm0-2.373h2.617a2.573,2.573,0,0,0,1.772-.547,1.989,1.989,0,0,0,.61-1.562,2.345,2.345,0,0,0-.615-1.689,2.3,2.3,0,0,0-1.7-.664H25.538ZM38.3,21H35.47V6H38.3Zm8.447,0a3.134,3.134,0,0,1-.283-.947A3.415,3.415,0,0,1,43.8,21.2a3.752,3.752,0,0,1-2.573-.9,2.89,2.89,0,0,1-1.021-2.266,2.986,2.986,0,0,1,1.245-2.578,6.144,6.144,0,0,1,3.6-.908h1.3v-.605a1.741,1.741,0,0,0-.376-1.172,1.479,1.479,0,0,0-1.187-.439,1.682,1.682,0,0,0-1.118.342,1.161,1.161,0,0,0-.405.938H40.44a2.835,2.835,0,0,1,.566-1.7,3.744,3.744,0,0,1,1.6-1.226,5.837,5.837,0,0,1,2.324-.444,4.611,4.611,0,0,1,3.1.981,3.433,3.433,0,0,1,1.147,2.759v4.58a5.052,5.052,0,0,0,.42,2.275V21Zm-2.334-1.963a2.431,2.431,0,0,0,1.152-.278,1.828,1.828,0,0,0,.781-.747V16.2H45.294q-2.119,0-2.256,1.465l-.01.166a1.13,1.13,0,0,0,.371.869A1.441,1.441,0,0,0,44.415,19.037Zm9.531-8.6.088,1.221a3.689,3.689,0,0,1,3.037-1.416,3.066,3.066,0,0,1,2.5.986,4.6,4.6,0,0,1,.84,2.949V21H57.589V14.227A1.838,1.838,0,0,0,57.2,12.92a1.746,1.746,0,0,0-1.3-.406,1.941,1.941,0,0,0-1.787,1.018V21H51.29V10.434ZM67.413,21.2a5.187,5.187,0,0,1-3.784-1.426,5.068,5.068,0,0,1-1.46-3.8V15.7a6.383,6.383,0,0,1,.615-2.847,4.515,4.515,0,0,1,1.743-1.934,4.893,4.893,0,0,1,2.573-.679,4.385,4.385,0,0,1,3.413,1.367,5.555,5.555,0,0,1,1.245,3.877v1.152H65.03a2.622,2.622,0,0,0,.825,1.66,2.5,2.5,0,0,0,1.743.625,3.046,3.046,0,0,0,2.549-1.182l1.387,1.553a4.237,4.237,0,0,1-1.719,1.4A5.639,5.639,0,0,1,67.413,21.2Zm-.322-8.682a1.764,1.764,0,0,0-1.362.569,2.946,2.946,0,0,0-.669,1.628h3.926v-.226a2.1,2.1,0,0,0-.508-1.457A1.819,1.819,0,0,0,67.091,12.514ZM79.483,21a3.134,3.134,0,0,1-.283-.947A3.415,3.415,0,0,1,76.534,21.2a3.752,3.752,0,0,1-2.573-.9,2.89,2.89,0,0,1-1.021-2.266,2.986,2.986,0,0,1,1.245-2.578,6.144,6.144,0,0,1,3.6-.908h1.3v-.605a1.741,1.741,0,0,0-.376-1.172,1.479,1.479,0,0,0-1.187-.439,1.682,1.682,0,0,0-1.118.342,1.161,1.161,0,0,0-.405.938H73.175a2.835,2.835,0,0,1,.566-1.7,3.744,3.744,0,0,1,1.6-1.226,5.837,5.837,0,0,1,2.324-.444,4.611,4.611,0,0,1,3.1.981,3.433,3.433,0,0,1,1.147,2.759v4.58a5.052,5.052,0,0,0,.42,2.275V21Zm-2.334-1.963a2.431,2.431,0,0,0,1.152-.278,1.828,1.828,0,0,0,.781-.747V16.2H78.028q-2.119,0-2.256,1.465l-.01.166a1.13,1.13,0,0,0,.371.869A1.441,1.441,0,0,0,77.149,19.037Zm11.328-.117a1.851,1.851,0,0,0,1.27-.43,1.506,1.506,0,0,0,.508-1.143H92.9a3.62,3.62,0,0,1-.586,1.968A3.866,3.866,0,0,1,90.738,20.7a4.936,4.936,0,0,1-2.212.493,4.587,4.587,0,0,1-3.574-1.44,5.7,5.7,0,0,1-1.309-3.979V15.59a5.635,5.635,0,0,1,1.3-3.9,4.534,4.534,0,0,1,3.564-1.455,4.444,4.444,0,0,1,3.179,1.128,3.994,3.994,0,0,1,1.216,3H90.255a1.939,1.939,0,0,0-.508-1.34,1.887,1.887,0,0,0-2.778.2,4.166,4.166,0,0,0-.5,2.333v.293a4.219,4.219,0,0,0,.5,2.347A1.721,1.721,0,0,0,88.478,18.92ZM97.491,21H94.659V10.434h2.832Zm-3-13.3a1.39,1.39,0,0,1,.425-1.045,1.831,1.831,0,0,1,2.31,0,1.382,1.382,0,0,1,.43,1.045,1.386,1.386,0,0,1-.435,1.055,1.81,1.81,0,0,1-2.295,0A1.386,1.386,0,0,1,94.493,7.7Zm4.883,7.92a6.266,6.266,0,0,1,.605-2.8,4.432,4.432,0,0,1,1.743-1.9,5.086,5.086,0,0,1,2.642-.674,4.812,4.812,0,0,1,3.491,1.309,5.252,5.252,0,0,1,1.509,3.555l.02.723a5.523,5.523,0,0,1-1.357,3.9,5.261,5.261,0,0,1-7.29,0,5.62,5.62,0,0,1-1.362-3.984Zm2.822.2a3.95,3.95,0,0,0,.566,2.3,2.035,2.035,0,0,0,3.223.01,4.322,4.322,0,0,0,.576-2.518,3.91,3.91,0,0,0-.576-2.289,1.873,1.873,0,0,0-1.621-.812,1.842,1.842,0,0,0-1.6.807A4.395,4.395,0,0,0,102.2,15.819ZM104.923,6H108l-2.705,3.027H103Zm8.8,4.434.088,1.221a3.689,3.689,0,0,1,3.037-1.416,3.066,3.066,0,0,1,2.5.986,4.6,4.6,0,0,1,.84,2.949V21h-2.822V14.227a1.838,1.838,0,0,0-.391-1.307,1.746,1.746,0,0,0-1.3-.406,1.941,1.941,0,0,0-1.787,1.018V21h-2.822V10.434Zm13.145,5.205a6.368,6.368,0,0,1,1.108-3.936,3.6,3.6,0,0,1,3.032-1.465,3.236,3.236,0,0,1,2.549,1.152V6h2.832V21h-2.549l-.137-1.123a3.321,3.321,0,0,1-2.715,1.318,3.587,3.587,0,0,1-2.993-1.47A6.573,6.573,0,0,1,126.866,15.639Zm2.822.2a4.194,4.194,0,0,0,.518,2.286,1.685,1.685,0,0,0,1.5.795,1.888,1.888,0,0,0,1.846-1.109V13.622a1.861,1.861,0,0,0-1.826-1.109Q129.688,12.514,129.688,15.839Zm13.75,5.356a5.187,5.187,0,0,1-3.784-1.426,5.068,5.068,0,0,1-1.46-3.8V15.7a6.383,6.383,0,0,1,.615-2.847,4.515,4.515,0,0,1,1.743-1.934,4.893,4.893,0,0,1,2.573-.679,4.385,4.385,0,0,1,3.413,1.367,5.555,5.555,0,0,1,1.245,3.877v1.152h-6.729a2.622,2.622,0,0,0,.825,1.66,2.5,2.5,0,0,0,1.743.625,3.046,3.046,0,0,0,2.549-1.182l1.387,1.553a4.237,4.237,0,0,1-1.719,1.4A5.639,5.639,0,0,1,143.438,21.2Zm-.322-8.682a1.764,1.764,0,0,0-1.362.569,2.946,2.946,0,0,0-.669,1.628h3.926v-.226a2.1,2.1,0,0,0-.508-1.457A1.819,1.819,0,0,0,143.116,12.514ZM152.364,21h-2.832V6h2.832Zm14.248-3.8q.205-1.162-1.143-1.777l-1.885-.752q-3.281-1.465-3.115-4.033a3.7,3.7,0,0,1,.781-2.109,4.7,4.7,0,0,1,2-1.44,7.088,7.088,0,0,1,2.783-.5,4.822,4.822,0,0,1,3.33,1.226,4.084,4.084,0,0,1,1.25,3.179h-2.852a2.035,2.035,0,0,0-.425-1.5,1.914,1.914,0,0,0-1.47-.557,2.963,2.963,0,0,0-1.7.444,1.823,1.823,0,0,0-.859,1.274q-.186,1.064,1.426,1.689l1.289.488.742.342q2.881,1.426,2.7,4a3.863,3.863,0,0,1-.806,2.173,4.542,4.542,0,0,1-1.953,1.4,6.957,6.957,0,0,1-2.72.459,6.092,6.092,0,0,1-2.7-.635,4.186,4.186,0,0,1-1.8-1.709,4.425,4.425,0,0,1-.537-2.344l2.861.01q-.137,2.314,2.275,2.354a2.989,2.989,0,0,0,1.719-.459A1.787,1.787,0,0,0,166.612,17.2Zm14.17-1.455a8.727,8.727,0,0,1-.869,2.949,4.782,4.782,0,0,1-1.65,1.914,3.823,3.823,0,0,1-2.187.6,3.05,3.05,0,0,1-2.422-1.143l-.967,5h-2.754l2.529-14.629,2.539-.01-.186,1.064a3.374,3.374,0,0,1,2.7-1.25,3,3,0,0,1,2.412,1.128,4.9,4.9,0,0,1,.918,2.954A11.418,11.418,0,0,1,180.782,15.746Zm-2.734-.2.059-.939a2.612,2.612,0,0,0-.347-1.506,1.244,1.244,0,0,0-1.069-.577,2.273,2.273,0,0,0-1.982,1.017l-.791,4.362a1.541,1.541,0,0,0,1.553,1.027,1.987,1.987,0,0,0,1.66-.773A5.292,5.292,0,0,0,178.048,15.546Zm10.84-2.466a5.686,5.686,0,0,0-.928-.1,2.67,2.67,0,0,0-2.334,1.1L184.405,21h-2.754l1.836-10.566,2.588-.01-.254,1.289a2.906,2.906,0,0,1,2.461-1.494,4.017,4.017,0,0,1,.957.137ZM191.739,21h-2.773L190.8,10.434h2.773Zm-.615-13.252a1.376,1.376,0,0,1,.43-1.084,1.653,1.653,0,0,1,2.168-.049A1.37,1.37,0,0,1,194.2,7.65a1.415,1.415,0,0,1-.405,1.055,1.519,1.519,0,0,1-1.108.469,1.544,1.544,0,0,1-1.079-.371A1.363,1.363,0,0,1,191.124,7.748Zm7.3,2.676-.234,1.25a3.8,3.8,0,0,1,3.076-1.436,2.535,2.535,0,0,1,2.207,1.094A4.407,4.407,0,0,1,204,14.281L202.882,21h-2.754l1.133-6.748a3.16,3.16,0,0,0,.02-.693,1.118,1.118,0,0,0-1.25-1.025,2.37,2.37,0,0,0-1.943,1.006L196.769,21h-2.754l1.836-10.566Zm12.2-2.588-.459,2.6h1.758l-.361,2.07h-1.758l-.9,5.293a1.346,1.346,0,0,0,.078.762q.137.264.664.283.156.01.84-.049l-.2,2.158a4.632,4.632,0,0,1-1.582.225,2.482,2.482,0,0,1-2.021-.85,3.07,3.07,0,0,1-.547-2.246l.908-5.576h-1.494l.361-2.07h1.494l.449-2.6Z" transform="translate(-3376 -4483)" fill="#12263f"/>
    <path id="Icon_awesome-arrow-right" data-name="Icon awesome-arrow-right" d="M16.021,5.107,17.888,3.24a2.01,2.01,0,0,1,2.851,0l16.349,16.34a2.01,2.01,0,0,1,0,2.851L20.739,38.78a2.01,2.01,0,0,1-2.851,0l-1.867-1.867a2.021,2.021,0,0,1,.034-2.885l10.134-9.655H2.018A2.014,2.014,0,0,1,0,22.356V19.665a2.014,2.014,0,0,1,2.018-2.018h24.17L16.054,7.992A2.006,2.006,0,0,1,16.021,5.107Z" transform="translate(-3066.846 -4295.022)" fill="#993a2b"/>
    <path id="Icon_awesome-arrow-right-2" data-name="Icon awesome-arrow-right" d="M16.021,5.107,17.888,3.24a2.01,2.01,0,0,1,2.851,0l16.349,16.34a2.01,2.01,0,0,1,0,2.851L20.739,38.78a2.01,2.01,0,0,1-2.851,0l-1.867-1.867a2.021,2.021,0,0,1,.034-2.885l10.134-9.655H2.018A2.014,2.014,0,0,1,0,22.356V19.665a2.014,2.014,0,0,1,2.018-2.018h24.17L16.054,7.992A2.006,2.006,0,0,1,16.021,5.107Z" transform="translate(-3490.255 -4295.022)" fill="#993a2b"/>
    <path id="Trazado_172618" data-name="Trazado 172618" d="M10,0H330a10,10,0,0,1,10,10V329a10,10,0,0,1-10,10H10A10,10,0,0,1,0,329V10A10,10,0,0,1,10,0Z" transform="translate(-3428 -4444)" fill="#fff5f3"/>
    <path id="Trazado_172619" data-name="Trazado 172619" d="M24.412,8.4H20.1v3.527h5.011V13H18.786V3.047h6.255V4.12H20.1V7.326h4.313Zm1.7.841a4.341,4.341,0,0,1,.8-2.758,2.823,2.823,0,0,1,4.218-.133L31.18,5.6h1.162v10.24H31.077V12.316a2.654,2.654,0,0,1-2.037.82A2.551,2.551,0,0,1,26.9,12.094a4.438,4.438,0,0,1-.8-2.765Zm1.265.144a3.291,3.291,0,0,0,.537,2,1.707,1.707,0,0,0,1.446.725,1.894,1.894,0,0,0,1.723-1V7.483a1.9,1.9,0,0,0-1.709-.978,1.72,1.72,0,0,0-1.456.728A3.583,3.583,0,0,0,27.372,9.384Zm11.566,2.885a2.686,2.686,0,0,1-2.167.868,2.3,2.3,0,0,1-1.8-.687,2.974,2.974,0,0,1-.625-2.034V5.6h1.265v4.778q0,1.682,1.367,1.682a1.893,1.893,0,0,0,1.928-1.08V5.6h1.265V13h-1.2ZM43.464,13H42.2V5.6h1.265ZM42.1,3.642a.755.755,0,0,1,.188-.52.706.706,0,0,1,.557-.212.717.717,0,0,1,.561.212.747.747,0,0,1,.191.52.722.722,0,0,1-.191.513.73.73,0,0,1-.561.205.718.718,0,0,1-.557-.205A.73.73,0,0,1,42.1,3.642Zm9.639,5.742a4.429,4.429,0,0,1-.772,2.721,2.476,2.476,0,0,1-2.092,1.032,2.713,2.713,0,0,1-2.119-.854v3.562H45.487V5.6h1.155l.062.82a2.605,2.605,0,0,1,2.146-.957,2.522,2.522,0,0,1,2.109,1,4.477,4.477,0,0,1,.776,2.8ZM50.471,9.24a3.268,3.268,0,0,0-.533-1.976,1.718,1.718,0,0,0-1.463-.725,1.859,1.859,0,0,0-1.723,1.019v3.534A1.863,1.863,0,0,0,48.488,12.1a1.71,1.71,0,0,0,1.446-.721A3.567,3.567,0,0,0,50.471,9.24Zm2.536-.007a4.369,4.369,0,0,1,.427-1.955,3.187,3.187,0,0,1,1.189-1.34,3.238,3.238,0,0,1,1.74-.472,3.119,3.119,0,0,1,2.444,1.046,4.024,4.024,0,0,1,.933,2.782v.089a4.407,4.407,0,0,1-.414,1.938,3.14,3.14,0,0,1-1.183,1.336,3.275,3.275,0,0,1-1.767.479,3.111,3.111,0,0,1-2.437-1.046,4,4,0,0,1-.933-2.769Zm1.271.15a3.164,3.164,0,0,0,.571,1.976,1.934,1.934,0,0,0,3.059-.01,3.46,3.46,0,0,0,.567-2.116A3.159,3.159,0,0,0,57.9,7.261a1.836,1.836,0,0,0-1.535-.755,1.816,1.816,0,0,0-1.511.745A3.435,3.435,0,0,0,54.278,9.384Z" transform="translate(-3297 -4434)" fill="#12263f"/>
    <path id="Trazado_26748" data-name="Trazado 26748" d="M82.337,66.943s1.756-1.612,5.1,1.305L89,65.827A4.485,4.485,0,0,0,82.337,66.943Z" transform="translate(-3443.817 -4455.751)" fill="#ff6148"/>
    <path id="Trazado_26749" data-name="Trazado 26749" d="M89.808,57.861s-2.078,2.581.914,5.522L88.7,65.421S84.075,59.749,89.808,57.861Z" transform="translate(-3445.156 -4453.737)" fill="#ff6148"/>
    <path id="Trazado_26750" data-name="Trazado 26750" d="M78.962,150.937a17.747,17.747,0,0,1,9.364-7.161l13.713-5.082h13.09l13.708,5.082a17.753,17.753,0,0,1,9.365,7.161Z" transform="translate(-3442.835 -4477.26)" fill="#a4dbf7"/>
    <path id="Trazado_26751" data-name="Trazado 26751" d="M144.52,179.576H165.7c0-3.619-.236-8.774-.236-8.774-1.245-21.663-17.033-25.069-17.033-25.069-12.31-2.981-5.6,16.06-5.6,16.06C142.514,166.381,143.2,172.553,144.52,179.576Z" transform="translate(-3460.892 -4479.216)" fill="#993a2b"/>
    <path id="Trazado_172620" data-name="Trazado 172620" d="M0,0H17.971V17.521H0Z" transform="translate(-3343.237 -4351.423)" fill="#ffe7e3"/>
    <path id="Trazado_26752" data-name="Trazado 26752" d="M126.04,128.7V120.56H108.069v4.033C113.195,128.86,119.37,129.4,126.04,128.7Z" transform="translate(-3451.306 -4471.983)" fill="#ffc8bf"/>
    <path id="Trazado_26753" data-name="Trazado 26753" d="M134.483,177.991c.345-9.447.24-12.042.155-15.265-.188-7.179-1.723-13.245-6.454-18.573l-.023-.006L115.35,139.97s2.694,4.715-9.08,4.715c0,0-7.756-.3-8.889-4.715l-13.01,4.177s-11.122,2.735-13.029,14.442l6.538,12.022-.233,7.38Z" transform="translate(-3440.618 -4477.632)" fill="#cc4d39"/>
    <path id="Trazado_26754" data-name="Trazado 26754" d="M148.821,81.911c.511-4.03-.347-7.89-.3-11.861.029-2.665-.492-6.687-3.806-7.025-4.591-.469-6.009,7.46-6.279,10.9-.374,4.737.8,9.856,1.714,14.491.329,1.674.295,5.019,2.179,5.828,1.612.691,3.259-.937,4.083-2.148C148.393,89.17,148.4,85.284,148.821,81.911Z" transform="translate(-3460.121 -4455.234)" fill="#ff6148"/>
    <path id="Trazado_26755" data-name="Trazado 26755" d="M132.716,99.1c-1.816,7.107-5.015,9.065-5.015,9.065l-4.291.837c-2.468-.313-6.726-1.319-6.726-1.319-9.8-3.332-12.64-4.231-14.159-7.956-.064-.157-7.725-26.751-7.725-26.751-1.253-13.687,13.074-16.535,15.237-16.892,2.14-.494,15.781-4.285,19.811,8.855A71.367,71.367,0,0,1,132.716,99.1Z" transform="translate(-3447.422 -4452.964)" fill="#ffe7e3"/>
    <path id="Trazado_26756" data-name="Trazado 26756" d="M134.714,48.806c.776,4.25.05,10.131-3.243,12.845-3.575,2.944-6.644,2.144-10.947,3.1-4.473.993-9.05,1.387-13.546,2.257-3.149.61-6.783.959-8.232,4.3a22.584,22.584,0,0,0-1,14.474c1.073,3.583,1.4,7.067,2.58,11.731a41.51,41.51,0,0,1-7.22-8.269c-2.026-3.564-2.026-3.564-4.311-9.764-1.34-3.634-2.5-6.83-2.671-10.577-.223-4.833,2.121-6.94,4.7-11.377a17.468,17.468,0,0,1,10.263-8.383s22.492,1.263,22.069-3.874c0,0,5.4,1.379,4.374,4.971,0,0,5.651-1.032,4.452-4.971A5.273,5.273,0,0,1,134.714,48.806Z" transform="translate(-3444.914 -4450.072)" fill="#ff6148"/>
    <path id="Trazado_26757" data-name="Trazado 26757" d="M100.962,99.818s-2.423-5.278-6.23-2.151c0,0-1.733,1.352.4,4.885,0,0,3.1,5.077,6.816,2.264Z" transform="translate(-3447.231 -4465.033)" fill="#ffe7e3"/>
    <path id="Trazado_26758" data-name="Trazado 26758" d="M101.454,83.746s.016,9.449,1.752,14.461l-1.841.365s-.968-6.48-4.3-6.557Z" transform="translate(-3448.102 -4461.27)" fill="#ff6148"/>
    <path id="Trazado_26759" data-name="Trazado 26759" d="M88.847,180.062h-19.8c.006,0,.069-4.7.079-5.035A93.724,93.724,0,0,1,70.4,161.194c1.19-6.512,4.352-12.286,11.313-13.941,3.185-.758,6.018,1.171,7.744,3.792C89.454,151.044,92.6,154.93,88.847,180.062Z" transform="translate(-3439.949 -4479.703)" fill="#993a2b"/>
    <path id="Trazado_26760" data-name="Trazado 26760" d="M299.117,113.052c-3.263-1.185-5.32-3.911-9.194-3.57-6.89.608-11.778,8.353-18.41,3.1-8.026-6.364-5.918-44.643-2.438-53.313,2.951-7.354,8.391-.165,16.154-2.635,9.02-2.87,16.8,4.247,21.459,11.637a44.574,44.574,0,0,1,6.636,26.52C312.662,103.129,311.155,117.423,299.117,113.052Z" transform="translate(-3473.339 -4451.571)" fill="#ff6148"/>
    <path id="Trazado_26761" data-name="Trazado 26761" d="M347.883,180.871H330.971l-3.024-12.211s-2.458-18.535,10.251-18.794c0,0,6.6,4.625,8.394,15.5A103.511,103.511,0,0,1,347.883,180.871Z" transform="translate(-3491.317 -4478.931)" fill="#ff6148"/>
    <path id="Trazado_26762" data-name="Trazado 26762" d="M267.152,182.1l2.281-9.211s2.458-18.535-10.252-18.794c0,0-7.622,5.552-6.954,28.005h14.925" transform="translate(-3469.325 -4480.163)" fill="#ff6148"/>
    <path id="Trazado_172623" data-name="Trazado 172623" d="M0,0H15.431V22.59H0Z" transform="translate(-3189.399 -4355.861)" fill="#ffe7e3"/>
    <path id="Trazado_26763" data-name="Trazado 26763" d="M306.743,121.291v-9.22h-15.43v13.281C296.4,125.2,302.443,124.276,306.743,121.291Z" transform="translate(-3480.712 -4467.932)" fill="#ffc8bf"/>
    <path id="Trazado_26764" data-name="Trazado 26764" d="M262.465,149.318a16.883,16.883,0,0,1,8.9-6.81l13.041-4.831h12.446l15.944,4.831a16.881,16.881,0,0,1,8.906,6.81Z" transform="translate(-3472.317 -4475.384)" fill="#ffe7e3"/>
    <path id="Trazado_26765" data-name="Trazado 26765" d="M264.689,177.794h51.378l-.328-9.652,7.555-11.432a16.769,16.769,0,0,0-11.462-13.732L299.275,139.4s.749,4.088-9.612,4.088c0,0-8.323,0-9.318-4.2l-9.945,3.685a21.1,21.1,0,0,0-11.267,9.593l5.556,15.57Z" transform="translate(-3471.347 -4475.854)" fill="#ff6148"/>
    <path id="Trazado_26766" data-name="Trazado 26766" d="M302.5,96.509a10.175,10.175,0,0,1-2.291,3.341,28.258,28.258,0,0,1-8.846,5.814c-4.035,1.655-10.126,1.867-13.333-1.456-2.6-2.694-4.024-6.774-5.152-10.273-2.194-6.8-2.166-14.236-1.608-21.3.128-1.611.291-3.224.559-4.819,2.511-15.41,15.695-15.376,15.695-15.376,9.956-.433,19.044,4.271,20.573,14.763.588,4.018-.186,8.333-.389,12.351a32.33,32.33,0,0,1-1.456,8.714C305.289,91.143,303.7,93.736,302.5,96.509Z" transform="translate(-3474.786 -4450.571)" fill="#ffe7e3"/>
    <path id="Trazado_26767" data-name="Trazado 26767" d="M269.206,78.991c-3.721-11.522-.719-25.069,3.729-29.307,12.6-12.018,35.865-7.444,42.975,11.343,2.2,5.8,1.165,27.441.169,34.093-1.333,8.911-4.609,15.016-11.376,15.016.181-7.347-.383-15.488.268-24.471.647-8.913-.539-9.132-7.956-13.279a22.077,22.077,0,0,1-8.125-7.564c-2.836-4.145-.7-5.595-6.316-5.407C282.574,59.415,269.526,58.97,269.206,78.991Z" transform="translate(-3473.79 -4447.843)" fill="#ff6148"/>
    <path id="Trazado_26768" data-name="Trazado 26768" d="M317.261,96.492s1.317-5.483,5.533-3.217c0,0,1.9.964.532,4.728,0,0-2,5.417-6.069,3.436Z" transform="translate(-3488.262 -4462.303)" fill="#ffe7e3"/>
    <path id="Trazado_26769" data-name="Trazado 26769" d="M78.962,339.5a17.747,17.747,0,0,1,9.364-7.161l13.713-5.081h13.09l13.708,5.081A17.753,17.753,0,0,1,138.2,339.5Z" transform="translate(-3442.835 -4519.113)" fill="#a4dbf7"/>
    <path id="Trazado_26770" data-name="Trazado 26770" d="M144.52,368.142H165.7c0-3.618-.236-8.774-.236-8.774C164.224,337.7,148.436,334.3,148.436,334.3c-12.31-2.981-5.6,16.06-5.6,16.06C142.514,354.947,143.2,361.119,144.52,368.142Z" transform="translate(-3460.892 -4521.069)" fill="#cc4d39"/>
    <path id="Trazado_172621" data-name="Trazado 172621" d="M0,0H17.971V17.521H0Z" transform="translate(-3343.237 -4204.709)" fill="#ffe7e3"/>
    <path id="Trazado_26771" data-name="Trazado 26771" d="M126.04,317.27v-8.143H108.069v4.033C113.195,317.426,119.37,317.968,126.04,317.27Z" transform="translate(-3451.306 -4513.836)" fill="#ffc8bf"/>
    <path id="Trazado_26772" data-name="Trazado 26772" d="M134.483,366.557c.345-9.447.24-12.042.155-15.265-.188-7.178-1.723-13.245-6.454-18.573l-.023-.006-12.811-4.177s2.694,4.715-9.08,4.715c0,0-7.756-.3-8.889-4.715l-13.01,4.177s-11.122,2.735-13.029,14.442l6.538,12.022-.233,7.38Z" transform="translate(-3440.618 -4519.484)" fill="#ff6148"/>
    <path id="Trazado_26773" data-name="Trazado 26773" d="M147.248,266.255c0-4.164-.177-8.32-.079-12.48.063-2.659.308-1.974-2.771-2.265-4.268-.406-5.695,7.522-5.994,10.952-.413,4.729.611,9.819,1.4,14.429.283,1.665.206,5,1.95,5.783,1.49.667,3.046-.979,3.829-2.2,1.8-2.8,1.482-7.088,1.6-10.269C147.23,268.889,147.248,267.572,147.248,266.255Z" transform="translate(-3460.106 -4497.064)" fill="#ff6148"/>
    <path id="Trazado_26774" data-name="Trazado 26774" d="M132.716,287.669c-1.816,7.107-5.015,9.066-5.015,9.066l-4.291.837c-2.468-.313-6.726-1.319-6.726-1.319-9.8-3.332-12.64-4.231-14.159-7.956-.064-.158-7.725-26.751-7.725-26.751-1.253-13.688,13.074-16.536,15.237-16.893,2.14-.493,15.781-4.284,19.811,8.855A71.367,71.367,0,0,1,132.716,287.669Z" transform="translate(-3447.422 -4494.816)" fill="#ffe7e3"/>
    <path id="Trazado_26775" data-name="Trazado 26775" d="M90.8,251.121c-4.761,2.294-4.924,6.545-4.7,11.377.173,3.747,1.331,6.943,2.671,10.577,2.285,6.2,2.285,6.2,4.311,9.764a41.509,41.509,0,0,0,7.22,8.269c-1.178-4.664-1.507-8.148-2.58-11.731a22.586,22.586,0,0,1,1-14.475s1.085-2.939,5.539-3.777h0l-13.464-10" transform="translate(-3444.895 -4496.956)" fill="#ff6148"/>
    <path id="Trazado_26776" data-name="Trazado 26776" d="M100.962,288.384s-2.423-5.278-6.23-2.151c0,0-1.733,1.353.4,4.885,0,0,3.1,5.078,6.816,2.264Z" transform="translate(-3447.231 -4506.885)" fill="#ffe7e3"/>
    <path id="Trazado_26777" data-name="Trazado 26777" d="M101.454,272.313s.016,9.449,1.752,14.46l-1.841.365s-.968-6.48-4.3-6.557Z" transform="translate(-3448.102 -4503.123)" fill="#ff6148"/>
    <path id="Trazado_26778" data-name="Trazado 26778" d="M136.325,240.589c15.316,15.6-31.031,15.44-31.031,15.44s-4.862,2.247-12.559-10.229c0,0-2.076-9.759,19.84-12.831C112.575,232.969,127.061,231.192,136.325,240.589Z" transform="translate(-3446.828 -4491.634)" fill="#ff6148"/>
    <path id="Trazado_26779" data-name="Trazado 26779" d="M88.847,368.628h-19.8c.006,0,.069-4.7.079-5.035A93.725,93.725,0,0,1,70.4,349.76c1.19-6.511,4.352-12.286,11.313-13.941,3.185-.757,6.018,1.171,7.744,3.792C89.454,339.611,92.6,343.5,88.847,368.628Z" transform="translate(-3439.949 -4521.555)" fill="#cc4d39"/>
    <path id="Trazado_26780" data-name="Trazado 26780" d="M279.719,238.834s-16.536,4.971-14.977,31.149V326.4h18.808Z" transform="translate(-3472.949 -4493.379)" fill="#ff6148"/>
    <path id="Trazado_26781" data-name="Trazado 26781" d="M283.258,255.752V336.8h35.964V268.526s2.363-26.192-14.823-29.409C304.4,239.117,283.258,235.288,283.258,255.752Z" transform="translate(-3478.368 -4493.379)" fill="#ff6148"/>
    <path id="Trazado_172624" data-name="Trazado 172624" d="M0,0H25.008V12.381H0Z" transform="translate(-3196.013 -4185.731)" fill="#ff6148"/>
    <path id="Trazado_26782" data-name="Trazado 26782" d="M347.883,369.437H330.971l-3.024-12.211s-2.458-18.534,10.251-18.793c0,0,6.6,4.625,8.394,15.5A103.511,103.511,0,0,1,347.883,369.437Z" transform="translate(-3491.317 -4522.364)" fill="#ff6148"/>
    <path id="Trazado_26783" data-name="Trazado 26783" d="M267.155,369.832l2.281-9.211s4.043-20.571-8.667-20.83c0,0-9.206,7.588-8.539,30.041h14.925" transform="translate(-3469.328 -4522.759)" fill="#ff6148"/>
    <path id="Trazado_172625" data-name="Trazado 172625" d="M0,0H15.431V22.59H0Z" transform="translate(-3189.399 -4210.728)" fill="#ffe7e3"/>
    <path id="Trazado_26784" data-name="Trazado 26784" d="M306.743,309.857v-9.22h-15.43v13.282C296.4,313.763,302.443,312.842,306.743,309.857Z" transform="translate(-3480.712 -4511.365)" fill="#ffc8bf"/>
    <path id="Trazado_26785" data-name="Trazado 26785" d="M262.465,337.884a16.883,16.883,0,0,1,8.9-6.81l13.041-4.83h12.446l15.944,4.83a16.881,16.881,0,0,1,8.906,6.81Z" transform="translate(-3472.317 -4518.817)" fill="#ff6148"/>
    <path id="Trazado_26786" data-name="Trazado 26786" d="M266.19,356.708v9.652h50.08l-.588-11.209c-.621-21.594,1.793-21.6,1.793-21.6a15.521,15.521,0,0,0-4.143-2.005l-12.557-3.574s-2.722,11.707-13.082,11.707c0,0-8.023-4.321-5.848-11.817l-9.945,3.685a20.965,20.965,0,0,0-7.612,4.774S266.061,337.407,266.19,356.708Z" transform="translate(-3472.847 -4519.287)" fill="#cc4d39"/>
    <path id="Trazado_26787" data-name="Trazado 26787" d="M302.5,285.076a10.183,10.183,0,0,1-2.291,3.341,28.282,28.282,0,0,1-8.846,5.814c-4.035,1.655-10.126,1.867-13.333-1.457-2.6-2.694-4.024-6.774-5.152-10.273-2.194-6.8-2.166-14.237-1.608-21.3.128-1.612.291-3.225.559-4.82,2.511-15.41,15.695-15.375,15.695-15.375,9.956-.434,19.044,4.27,20.573,14.763.588,4.018-.186,8.333-.389,12.351a32.33,32.33,0,0,1-1.456,8.714C305.289,279.709,303.7,282.3,302.5,285.076Z" transform="translate(-3474.786 -4494.004)" fill="#ffe7e3"/>
    <path id="Trazado_26788" data-name="Trazado 26788" d="M317.261,285.058s1.317-5.483,5.533-3.217c0,0,1.9.964.532,4.729,0,0-2,5.417-6.069,3.436Z" transform="translate(-3488.262 -4505.735)" fill="#ffe7e3"/>
    <path id="Trazado_26789" data-name="Trazado 26789" d="M269.977,256.918c-.709-21.151,19.367-20.147,19.367-20.147,19.733.81,20.715,9.749,20.715,9.749,2.388,11.344-1.029,22.363-1.029,22.363-4.194-.915-4.9,4.7-4.9,4.7.44-8.992-.3-9.534-.3-9.534a89.06,89.06,0,0,1-11.015-.754l-.283-6.27-1.543,5.941a100.385,100.385,0,0,1-18.5-2.44s-2.51.177-2.51,7.812Z" transform="translate(-3474.497 -4492.777)" fill="#ff6148"/>
    <path id="Icon_awesome-clipboard-list" data-name="Icon awesome-clipboard-list" d="M28.257,5.382H21.529a5.382,5.382,0,1,0-10.765,0H4.037A4.038,4.038,0,0,0,0,9.419v29.6a4.038,4.038,0,0,0,4.037,4.037h24.22a4.038,4.038,0,0,0,4.037-4.037V9.419A4.038,4.038,0,0,0,28.257,5.382ZM8.073,35.658a2.018,2.018,0,1,1,2.018-2.018A2.014,2.014,0,0,1,8.073,35.658Zm0-8.073a2.018,2.018,0,1,1,2.018-2.018A2.014,2.014,0,0,1,8.073,27.584Zm0-8.073a2.018,2.018,0,1,1,2.018-2.018A2.014,2.014,0,0,1,8.073,19.511ZM16.147,3.364a2.018,2.018,0,1,1-2.018,2.018A2.014,2.014,0,0,1,16.147,3.364ZM26.912,34.312a.675.675,0,0,1-.673.673H14.129a.675.675,0,0,1-.673-.673V32.967a.675.675,0,0,1,.673-.673h12.11a.675.675,0,0,1,.673.673Zm0-8.073a.675.675,0,0,1-.673.673H14.129a.675.675,0,0,1-.673-.673V24.893a.675.675,0,0,1,.673-.673h12.11a.675.675,0,0,1,.673.673Zm0-8.073a.675.675,0,0,1-.673.673H14.129a.675.675,0,0,1-.673-.673V16.82a.675.675,0,0,1,.673-.673h12.11a.675.675,0,0,1,.673.673Z" transform="translate(-3273.885 -4295.963)" fill="#ff6148"/>
    <path id="Icon_ionic-ios-time" data-name="Icon ionic-ios-time" d="M20.868,3.375A17.493,17.493,0,1,0,38.36,20.868,17.49,17.49,0,0,0,20.868,3.375Zm1.177,19.006a1.181,1.181,0,0,1-1.177,1.177H12.794a1.177,1.177,0,1,1,0-2.355h6.9V10.1a1.177,1.177,0,1,1,2.355,0Z" transform="translate(-3279.653 -4239.085)" fill="#ff6148"/>
  </g>
</svg>
